<?xml version="1.0" encoding="UTF-8"?>
<svg id="Bold" xmlns="http://www.w3.org/2000/svg" version="1.1" viewBox="0 0 512 512">
  <defs>
    <style>
      .cls-1 {
        fill: #7a7a7a;
        stroke-width: 0px;
      }
    </style>
  </defs>
  <path class="cls-1" d="M301.2,256l82.8-82.8c11.7-13.3,10.4-33.5-2.9-45.2-12.1-10.6-30.2-10.6-42.3,0l-82.8,82.8-83-83c-12.5-12.5-32.8-12.5-45.3,0s-12.5,32.8,0,45.3l83,83-82.8,82.8c-13.2,11.8-14.3,32-2.5,45.2s32,14.3,45.2,2.5c.9-.8,1.7-1.6,2.5-2.5l82.8-82.8,82.7,82.8c12.5,12.5,32.8,12.5,45.3,0s12.5-32.8,0-45.3l-82.8-82.7h.1Z"/>
  <circle class="cls-1" cx="436.7" cy="256.6" r="43.4"/>
  <circle class="cls-1" cx="73.8" cy="256.6" r="43.4"/>
</svg>