<?xml version="1.0" encoding="UTF-8"?>
<svg id="Bold" xmlns="http://www.w3.org/2000/svg" version="1.1" viewBox="0 0 512 512">
  <defs>
    <style>
      .cls-1 {
        stroke-width: 60px;
      }

      .cls-1, .cls-2, .cls-3 {
        fill: none;
        stroke: #000;
        stroke-miterlimit: 10;
      }

      .cls-1, .cls-3 {
        stroke-linecap: round;
      }

      .cls-2 {
        stroke-width: 38.6px;
      }

      .cls-3 {
        stroke-width: 50px;
      }
    </style>
  </defs>
  <line class="cls-3" x1="1452.1" y1="1025.9" x2="1452.2" y2="872.7"/>
  <line class="cls-3" x1="1077.4" y1="1027.8" x2="1077.6" y2="874.6"/>
  <line class="cls-3" x1="1420.9" y1="951.2" x2="1108.7" y2="951.2"/>
  <path class="cls-3" d="M1040.1,1108c46.7-10,97.3-23.7,111.4-75.6,18.6-68.4,8.4-134.6,38.1-213.8,13.8-36.7,43.2-71.3,77.5-71.3"/>
  <path class="cls-3" d="M1494.1,1108c-46.7-10-97.3-23.7-111.4-75.6-18.6-68.4-8.4-134.6-38.1-213.8-13.8-36.7-43.2-71.3-77.5-71.3"/>
  <g>
    <path class="cls-2" d="M406.9,35.5l-213.1-.3c-28.4,0-51.4,22.9-51.4,51.2v74.2h-36.7c-28.4,0-51.4,22.9-51.4,51.2l-.3,213.1c0,28.4,22.9,51.4,51.2,51.4l213.1.3c28.4,0,51.4-22.9,51.4-51.2v-74.2h36.7c28.4,0,51.4-22.9,51.4-51.2l.3-213.1c0-28.4-22.9-51.4-51.2-51.4h0Z"/>
    <g>
      <line class="cls-1" x1="190" y1="255.9" x2="322" y2="255.9"/>
      <line class="cls-1" x1="256" y1="321.9" x2="256" y2="189.9"/>
    </g>
  </g>
</svg>