<?xml version="1.0" encoding="UTF-8"?>
<svg id="Bold" xmlns="http://www.w3.org/2000/svg" version="1.1" viewBox="0 0 512 512">
  <defs>
    <style>
      .cls-1 {
        stroke-width: 42.9px;
      }

      .cls-1, .cls-2 {
        fill: none;
        stroke: #000;
        stroke-miterlimit: 10;
      }

      .cls-2 {
        stroke-linecap: round;
        stroke-width: 50px;
      }
    </style>
  </defs>
  <rect class="cls-1" x="50.1" y="46.1" width="419.7" height="419.7" rx="68.3" ry="68.3" transform="translate(.3 -.3) rotate(0)"/>
  <line class="cls-2" x1="1452.1" y1="1025.9" x2="1452.2" y2="872.7"/>
  <line class="cls-2" x1="1077.4" y1="1027.8" x2="1077.6" y2="874.6"/>
  <line class="cls-2" x1="1420.9" y1="951.2" x2="1108.7" y2="951.2"/>
  <path class="cls-2" d="M1040.1,1108c46.7-10,97.3-23.7,111.4-75.6,18.6-68.4,8.4-134.6,38.1-213.8,13.8-36.7,43.2-71.3,77.5-71.3"/>
  <path class="cls-2" d="M1494.1,1108c-46.7-10-97.3-23.7-111.4-75.6-18.6-68.4-8.4-134.6-38.1-213.8-13.8-36.7-43.2-71.3-77.5-71.3"/>
  <circle class="cls-1" cx="321" cy="318" r="52.3"/>
  <circle class="cls-1" cx="199" cy="194" r="52.3"/>
</svg>