<?xml version="1.0" encoding="UTF-8"?>
<svg id="Bold" xmlns="http://www.w3.org/2000/svg" version="1.1" viewBox="0 0 512 512">
  <!-- Generator: Adobe Illustrator 29.7.1, SVG Export Plug-In . SVG Version: 2.1.1 Build 8)  -->
  <defs>
    <style>
      .st0 {
        fill: #fffef8;
      }

      .st1 {
        fill: #cfe1f9;
      }
    </style>
  </defs>
  <g>
    <g>
      <path d="M30.5,242.8c-14.3-20-13.2-47.3,2.4-66.1,9.2-11.1,22.3-18,36.7-19.3,14.4-1.4,28.4,3.2,39.5,12.3,3.5,2.9,6.7,6.4,9.3,10.1,3.9,5.6,6.8,11.7,8.5,18.3l.3.8c.3.4.7.7,1.3.8l265.3,69.6c.7.2,1.6,0,2.1-.6,19.7-19.8,51.7-21.4,73.2-3.4,3.7,3,6.7,6.4,9.4,10.2,5.6,7.9,8.9,16.9,9.7,26.5,1.4,14.4-3.2,28.4-12.4,39.5-9.2,11.1-22.4,18-36.6,19.3-14.4,1.4-28.4-3.2-39.5-12.4-3.5-2.9-6.7-6.4-9.4-10.2-3.9-5.3-6.5-11.4-8.3-17.8l-.3-.8c-.3-.4-.7-.7-1.3-.8L114.7,248.8c-.7-.2-1.6,0-2.1.6-19.6,19.5-51.5,21-72.8,3.3-3.5-2.9-6.7-6.4-9.3-10.1h-.2v.2h.2Z"/>
      <g>
        <circle class="st0" cx="434.1" cy="306.5" r="34.2"/>
        <circle class="st0" cx="74.5" cy="211.5" r="34.2"/>
      </g>
    </g>
    <path class="st1" d="M441.9,266.3c-16.3-3.1-32.2,3.9-41.3,16.6L115.4,208.8v-1.6c-2.4-22.6-22.6-38.9-45.2-36.5-22.6,2.4-38.9,22.6-36.5,45.2,2.4,22.6,22.6,38.9,45.2,36.5,12.5-1.3,23-8.1,29.6-17.7l284.9,74c.9,18.5,14.3,34.6,33.3,38.2,22.3,4.3,43.8-10.4,48.1-32.6,4.3-22.3-10.4-43.8-32.6-48.1h-.3Z"/>
  </g>
  <g>
    <g>
      <path d="M136.1,360.8c-24.6,1.6-47.1-13.8-54.8-37-4.6-13.7-3.5-28.4,3.1-41.4,6.5-13,17.7-22.5,31.3-27,4.4-1.5,9-2.3,13.5-2.6,6.8-.4,13.5.5,20,2.5l.8.2c.5,0,1-.2,1.4-.6l62.5-59.2c.6-.5.8-1.3.6-2.1-6.4-27.2,9.2-55.2,35.8-63.9,4.5-1.6,9-2.3,13.6-2.6,9.6-.6,19.1,1.4,27.6,5.8,13,6.5,22.5,17.7,26.9,31.4,4.6,13.7,3.5,28.5-3,41.3-6.5,13-17.7,22.5-31.4,26.9-4.4,1.5-9,2.3-13.6,2.6-6.6.5-13.1-.5-19.5-2.4l-.8-.2c-.5,0-1,.2-1.4.6l-62.8,59.4c-.6.5-.8,1.3-.6,2.1,6.2,26.9-9.5,54.8-35.7,63.5-4.4,1.5-9,2.3-13.5,2.6h0v.2h.1,0Z"/>
      <g>
        <circle class="st0" cx="266.8" cy="181.1" r="34.2" transform="translate(-49.9 241.7) rotate(-45)"/>
        <circle class="st0" cx="132.8" cy="307.2" r="34.2" transform="translate(-201.6 292.4) rotate(-64.1)"/>
      </g>
    </g>
    <path class="st1" d="M294.7,150.9c-16.7-15.4-42.6-14.4-58.1,2.3-11.3,12.3-13.8,29.6-7.6,44l-77.1,73.5c-.4-.2-.8-.4-1.3-.7-20.4-9.9-45-1.4-54.9,19.1-9.9,20.4-1.4,45,19.1,54.9s45,1.4,54.9-19.1c5.5-11.3,5.3-23.9.6-34.6l76.8-73.2c16.2,8.9,36.9,6,49.9-8.1,15.4-16.7,14.4-42.6-2.3-58.1Z"/>
  </g>
</svg>